<svg width="36" height="36" viewBox="0 0 36 36" fill="none" xmlns="http://www.w3.org/2000/svg">
    <path fill-rule="evenodd" clip-rule="evenodd" d="M17.9298 33.8597C26.7277 33.8597 33.8597 26.7277 33.8597 17.9298C33.8597 9.13203 26.7277 2 17.9298 2C9.13203 2 2 9.13203 2 17.9298C2 26.7277 9.13203 33.8597 17.9298 33.8597ZM17.9298 35.8597C27.8322 35.8597 35.8597 27.8322 35.8597 17.9298C35.8597 8.02746 27.8322 0 17.9298 0C8.02746 0 0 8.02746 0 17.9298C0 27.8322 8.02746 35.8597 17.9298 35.8597Z" fill="white"></path>
    <path d="M23.3664 10.0113C23.3477 10.0098 23.332 10 23.3125 10H15.25C14.0095 10 13 11.0095 13 12.25V13C13 13.414 13.3359 13.75 13.75 13.75C14.164 13.75 14.4999 13.414 14.4999 13V12.25C14.4999 11.8368 14.8366 11.5 15.25 11.5H18.7442L18.5154 11.5765C17.908 11.7865 17.5 12.3588 17.5 13V24.25H15.25C14.8366 24.25 14.4999 23.9132 14.4999 23.5V22C14.4999 21.586 14.164 21.25 13.75 21.25C13.3359 21.25 13 21.586 13 22V23.5C13 24.7405 14.0095 25.75 15.25 25.75H17.5V26.5C17.5 27.3272 18.1726 28 18.9999 28C19.1604 28 19.3127 27.9768 19.4777 27.9257L23.9837 26.4235C24.5919 26.2135 25 25.6412 25 25V11.5C25 10.6255 24.2462 9.93999 23.3664 10.0113Z" fill="white"></path>
    <path d="M15.0302 16.9699L12.0302 13.9699C11.8157 13.7554 11.4933 13.6909 11.2127 13.8072C10.933 13.9234 10.75 14.1972 10.75 14.5001V16.7501H7.74995C7.33604 16.7501 7 17.0862 7 17.5001C7 17.9141 7.33604 18.2502 7.74995 18.2502H10.75V20.5002C10.75 20.8031 10.933 21.0768 11.2127 21.1931C11.4933 21.3093 11.8157 21.2449 12.0302 21.0304L15.0302 18.0303C15.3235 17.7371 15.3235 17.2632 15.0302 16.9699Z" fill="white"></path>
</svg>