<svg width="300" height="81" viewBox="0 0 300 81" fill="none" xmlns="http://www.w3.org/2000/svg">
<path d="M111.801 17.0039H95.2549C94.7071 17.0036 94.1773 17.1989 93.7607 17.5547C93.3442 17.9105 93.0685 18.4034 92.9831 18.9446L86.2912 61.3811C86.2604 61.5781 86.2727 61.7793 86.3272 61.971C86.3816 62.1628 86.477 62.3404 86.6067 62.4917C86.7363 62.6431 86.8973 62.7645 87.0784 62.8476C87.2595 62.9308 87.4564 62.9737 87.6557 62.9734H95.5549C96.103 62.9737 96.6332 62.778 97.0497 62.4217C97.4663 62.0654 97.7419 61.5719 97.8267 61.0303L99.6315 49.5845C99.7163 49.0433 99.9915 48.5501 100.408 48.1939C100.824 47.8376 101.353 47.6417 101.901 47.6414H107.139C118.038 47.6414 124.328 42.3661 125.971 31.9125C126.711 27.339 126.002 23.7455 123.861 21.2289C121.51 18.4655 117.339 17.0039 111.801 17.0039ZM113.71 32.5029C112.805 38.4412 108.269 38.4412 103.882 38.4412H101.386L103.137 27.3511C103.188 27.0266 103.354 26.7311 103.603 26.5178C103.853 26.3044 104.171 26.1872 104.499 26.1872H105.644C108.632 26.1872 111.45 26.1872 112.907 27.8907C113.775 28.907 114.041 30.417 113.71 32.5029ZM161.26 32.3117H153.336C153.008 32.3117 152.69 32.429 152.441 32.6424C152.191 32.8557 152.026 33.1512 151.974 33.4757L151.623 35.6922L151.069 34.8889C149.354 32.3989 145.529 31.5664 141.711 31.5664C132.956 31.5664 125.477 38.1992 124.021 47.5034C123.264 52.1447 124.34 56.5826 126.973 59.6776C129.387 62.5233 132.842 63.709 136.952 63.709C144.007 63.709 147.919 59.1718 147.919 59.1718L147.566 61.3739C147.535 61.5708 147.546 61.7721 147.6 61.9641C147.654 62.1561 147.749 62.3341 147.878 62.4859C148.007 62.6377 148.168 62.7597 148.349 62.8434C148.53 62.9272 148.727 62.9707 148.926 62.971H156.063C156.611 62.9712 157.141 62.7756 157.558 62.4193C157.974 62.0629 158.25 61.5695 158.335 61.0279L162.617 33.904C162.648 33.7076 162.637 33.5066 162.583 33.315C162.53 33.1235 162.435 32.9459 162.306 32.7945C162.177 32.6431 162.016 32.5215 161.836 32.4382C161.655 32.3548 161.459 32.3117 161.26 32.3117ZM150.215 47.7357C149.451 52.2632 145.858 55.3025 141.276 55.3025C138.975 55.3025 137.136 54.5645 135.956 53.1658C134.785 51.7769 134.34 49.7999 134.712 47.5978C135.426 43.109 139.079 39.9705 143.591 39.9705C145.841 39.9705 147.67 40.7182 148.875 42.129C150.082 43.5543 150.561 45.5434 150.215 47.7357ZM203.458 32.3117H195.496C195.121 32.3123 194.751 32.4046 194.419 32.5804C194.087 32.7562 193.803 33.0104 193.592 33.3208L182.611 49.4998L177.956 33.9524C177.813 33.4782 177.521 33.0626 177.124 32.7671C176.726 32.4717 176.244 32.312 175.749 32.3117H167.925C167.705 32.3112 167.489 32.3631 167.293 32.4631C167.098 32.5632 166.929 32.7085 166.801 32.8869C166.673 33.0654 166.589 33.2719 166.557 33.4892C166.525 33.7065 166.545 33.9284 166.616 34.1363L175.386 59.8784L167.141 71.5202C166.995 71.7266 166.908 71.9694 166.89 72.2219C166.872 72.4745 166.924 72.727 167.04 72.9519C167.157 73.1768 167.332 73.3654 167.549 73.497C167.765 73.6286 168.013 73.6982 168.266 73.6981H176.219C176.59 73.6986 176.956 73.609 177.285 73.4371C177.614 73.2651 177.896 73.0159 178.108 72.7108L204.59 34.4775C204.734 34.2706 204.818 34.0284 204.834 33.7771C204.85 33.5258 204.796 33.275 204.68 33.0519C204.563 32.8288 204.387 32.6418 204.172 32.5114C203.957 32.3809 203.71 32.3119 203.458 32.3117Z" fill="white"/>
<path d="M229.819 17.0044H213.271C212.723 17.0046 212.194 17.2002 211.778 17.556C211.362 17.9117 211.087 18.4043 211.001 18.9451L204.309 61.3816C204.278 61.5782 204.29 61.7792 204.344 61.9707C204.398 62.1623 204.493 62.3399 204.622 62.4912C204.752 62.6426 204.912 62.7641 205.093 62.8474C205.273 62.9307 205.47 62.9739 205.669 62.9739H214.161C214.544 62.9733 214.914 62.836 215.205 62.5867C215.496 62.3374 215.689 61.9925 215.748 61.6139L217.647 49.585C217.732 49.0437 218.007 48.5506 218.423 48.1943C218.839 47.8381 219.369 47.6422 219.917 47.6418H225.152C236.054 47.6418 242.342 42.3666 243.987 31.9129C244.73 27.3395 244.016 23.746 241.875 21.2294C239.526 18.4659 235.357 17.0044 229.819 17.0044ZM231.728 32.5034C230.826 38.4416 226.289 38.4416 221.901 38.4416H219.406L221.16 27.3516C221.211 27.0271 221.375 26.7314 221.625 26.5179C221.874 26.3044 222.192 26.1872 222.52 26.1876H223.664C226.65 26.1876 229.471 26.1876 230.927 27.8912C231.796 28.9075 232.059 30.4175 231.728 32.5034ZM279.276 32.3122H271.357C271.029 32.3113 270.711 32.4283 270.461 32.6419C270.212 32.8555 270.047 33.1515 269.997 33.4762L269.647 35.6927L269.09 34.8893C267.375 32.3993 263.552 31.5669 259.734 31.5669C250.979 31.5669 243.503 38.1997 242.047 47.5039C241.292 52.1451 242.363 56.5831 244.996 59.6781C247.415 62.5238 250.865 63.7095 254.976 63.7095C262.03 63.7095 265.942 59.1723 265.942 59.1723L265.589 61.3744C265.558 61.5716 265.569 61.7734 265.624 61.9657C265.678 62.1581 265.773 62.3363 265.903 62.4882C266.032 62.6401 266.194 62.762 266.375 62.8454C266.557 62.9289 266.754 62.9719 266.954 62.9715H274.088C274.636 62.9711 275.166 62.7752 275.582 62.4189C275.998 62.0627 276.273 61.5695 276.358 61.0283L280.642 33.9045C280.673 33.7074 280.66 33.5061 280.605 33.3144C280.551 33.1227 280.455 32.9451 280.325 32.7938C280.195 32.6425 280.034 32.5212 279.853 32.438C279.672 32.3549 279.475 32.312 279.276 32.3122ZM268.231 47.7362C267.472 52.2637 263.874 55.303 259.292 55.303C256.996 55.303 255.152 54.565 253.972 53.1663C252.801 51.7773 252.36 49.8003 252.728 47.5983C253.447 43.1095 257.095 39.971 261.607 39.971C263.857 39.971 265.686 40.7187 266.891 42.1295C268.103 43.5547 268.582 45.5438 268.231 47.7362ZM288.617 18.1683L281.826 61.3816C281.794 61.5782 281.806 61.7792 281.86 61.9707C281.914 62.1623 282.009 62.3399 282.138 62.4912C282.268 62.6426 282.428 62.7641 282.609 62.8474C282.79 62.9307 282.986 62.9739 283.185 62.9739H290.013C291.147 62.9739 292.11 62.1511 292.284 61.0307L298.981 18.5966C299.012 18.3999 299 18.1988 298.946 18.0071C298.892 17.8155 298.798 17.6378 298.668 17.4862C298.539 17.3347 298.379 17.213 298.198 17.1294C298.017 17.0458 297.821 17.0023 297.622 17.002H289.976C289.648 17.0031 289.331 17.1211 289.082 17.3348C288.833 17.5486 288.668 17.844 288.617 18.1683Z" fill="#179BD7"/>
<path d="M17.579 71.2202L18.8443 63.1815L16.0258 63.1162H2.56689L11.9201 3.79892C11.948 3.61767 12.04 3.45248 12.1794 3.33343C12.3189 3.21439 12.4965 3.14943 12.6798 3.1504H35.3733C42.9072 3.1504 48.1064 4.71845 50.8209 7.81341C52.0935 9.26531 52.904 10.7825 53.2959 12.4522C53.7072 14.2042 53.7145 16.2973 53.3129 18.8503L53.2838 19.0366V20.6724L54.5564 21.3935C55.5279 21.8858 56.4012 22.5517 57.133 23.3584C58.2217 24.5998 58.9258 26.1775 59.2233 28.048C59.5306 29.9718 59.429 32.2609 58.9258 34.8526C58.3451 37.8338 57.4064 40.4303 56.1387 42.5549C55.0201 44.4582 53.5162 46.1067 51.7233 47.3946C50.0395 48.59 48.0387 49.4974 45.7766 50.0782C43.5846 50.6492 41.0854 50.9372 38.3443 50.9372H36.5782C35.3153 50.9372 34.0887 51.3921 33.1258 52.2076C32.1642 53.0318 31.5264 54.1706 31.3258 55.4211L31.1927 56.1447L28.9572 70.3128L28.8556 70.833C28.829 70.9976 28.783 71.0798 28.7153 71.1355C28.6497 71.1892 28.5678 71.219 28.483 71.2202H17.579Z" fill="#253B80"/>
<path d="M55.7616 19.2246C55.6939 19.6578 55.6165 20.1006 55.5294 20.5555C52.5366 35.9239 42.2979 41.233 29.2213 41.233H22.5633C20.9641 41.233 19.6165 42.3945 19.3673 43.9722L15.9584 65.5958L14.9931 71.7252C14.9546 71.9684 14.9693 72.2169 15.0361 72.4539C15.1029 72.6908 15.2203 72.9104 15.3801 73.0976C15.5399 73.2848 15.7383 73.4351 15.9618 73.5383C16.1853 73.6414 16.4284 73.6949 16.6745 73.695H28.4834C29.8818 73.695 31.0697 72.6786 31.2899 71.2993L31.406 70.6992L33.6294 56.5868L33.7721 55.8124C33.9899 54.4283 35.1802 53.412 36.5786 53.412H38.3447C49.7858 53.412 58.7423 48.7659 61.36 35.3213C62.4536 29.7049 61.8874 25.0153 58.9939 21.717C58.0768 20.6967 56.9815 19.8521 55.7616 19.2246Z" fill="#179BD7"/>
<path d="M52.6307 17.9757C51.6751 17.6992 50.703 17.4834 49.7202 17.3296C47.7782 17.0311 45.8155 16.8878 43.8508 16.9013H26.0637C25.3868 16.9007 24.732 17.1424 24.2178 17.5827C23.7035 18.023 23.3637 18.6327 23.2597 19.3017L19.4758 43.2726L19.3669 43.9719C19.4848 43.2088 19.8719 42.5131 20.4581 42.0107C21.0443 41.5082 21.7909 41.2323 22.5629 41.2326H29.221C42.2976 41.2326 52.5363 35.9211 55.529 20.5552C55.6186 20.1003 55.6936 19.6574 55.7613 19.2243C54.9716 18.8101 54.1485 18.4628 53.3008 18.1862C53.0786 18.1124 52.8552 18.0422 52.6307 17.9757Z" fill="#222D65"/>
<path d="M23.2595 19.3021C23.3625 18.6329 23.7022 18.0229 24.2167 17.5829C24.7313 17.1428 25.3865 16.902 26.0635 16.9041H43.8506C45.9578 16.9041 47.9248 17.042 49.7199 17.3324C50.9347 17.5234 52.1327 17.809 53.303 18.1866C54.1861 18.4794 55.0062 18.8254 55.7635 19.2247C56.6538 13.5454 55.7562 9.67848 52.6861 6.17699C49.3014 2.3222 43.1925 0.671875 35.3756 0.671875H12.682C11.0853 0.671875 9.72317 1.83339 9.47639 3.41354L0.0239751 63.3406C-0.0200527 63.6189 -0.00330161 63.9033 0.0730761 64.1745C0.149454 64.4456 0.283645 64.697 0.46642 64.9113C0.649195 65.1256 0.876215 65.2978 1.13186 65.4159C1.38751 65.5341 1.66573 65.5955 1.94736 65.5959H15.9578L19.4756 43.273L23.2595 19.3021Z" fill="#253B80"/>
</svg>
