<svg width="300" height="92" viewBox="0 0 300 92" fill="none" xmlns="http://www.w3.org/2000/svg">
<path d="M300 0.902344H0V91.8114H300V0.902344Z" fill="#036CB5"/>
<path d="M249.71 16.5215C254.437 16.5215 258.935 17.6046 262.971 19.542C263.604 19.8276 264.241 20.1694 264.872 20.5115L262.105 22.9629L257.956 18.688L250.807 24.9572L246.597 20.4538L233.451 32.1388L241.867 41.3155L238.582 44.1647L246.885 53.3414L243.599 56.1894L255.477 69.2422L262.507 62.8582L268.622 69.6997C267.41 70.6118 266.084 71.5256 264.644 72.3222C260.261 74.7728 255.187 76.195 249.768 76.195C233.104 76.195 219.556 62.8034 219.556 46.3326C219.497 29.9732 233.047 16.5215 249.71 16.5215ZM244.174 44.5074L251.381 38.1233L257.84 45.2478L250.631 51.6312L244.174 44.5074ZM249.307 56.8192L256.455 50.3786L262.971 57.5025L255.763 63.8868L249.307 56.8192ZM239.045 32.3675L246.251 25.9835L252.708 33.1079L245.5 39.4917L239.045 32.3675ZM252.246 28.9466L257.609 24.1591L262.453 29.4601L257.09 34.3041L252.246 28.9466ZM261.818 50.8905L267.179 46.1027L272.023 51.459L266.66 56.2498L261.818 50.8905ZM266.545 61.6641L271.908 56.8754L276.748 62.1761L271.388 67.0195L266.545 61.6641ZM268.737 37.0402L272.311 33.8481L275.539 37.3832L271.965 40.5742L268.737 37.0402ZM264.124 26.4957L267.699 23.2476L270.929 26.8378L267.351 30.0297L264.124 26.4957ZM273.291 47.5856L276.865 44.3938L280.151 47.9277L276.52 51.1187L273.291 47.5856ZM257.205 39.6628L262.568 34.8749L267.41 40.1747L262.05 44.9634L257.205 39.6628Z" fill="white"/>
<path d="M36.266 37.9478H35.9943L30.9062 57.2704H26.7482L20.5066 29.8159H24.8216L29.1367 50.3011H29.4054L34.415 29.8159H37.8453L43.2021 50.3011H43.4709L47.3994 29.8159H51.9107L45.6661 57.2704H41.5051L36.266 37.9478Z" fill="white"/>
<path d="M57.3823 45.5845H66.2027C66.0124 41.5201 64.0466 39.8956 61.9752 39.8956C59.6259 39.8956 57.8141 41.7073 57.3914 45.5845H57.3823ZM69.2736 52.8649V55.7999C67.1981 56.9855 64.8455 57.6002 62.4553 57.5815C55.9842 57.5815 53.327 53.5533 53.327 47.4386C53.327 41.5503 56.2922 37.2927 62.0839 37.2927C66.9002 37.2927 69.8685 40.43 69.8685 46.7411V48.1754H57.3068C57.3068 52.8196 59.1941 54.8729 63.1649 54.8729C65.2454 54.8729 67.172 54.1361 69.2887 52.8619" fill="white"/>
<path d="M78.8277 54.4834C79.9557 54.93 81.1631 55.1417 82.3758 55.1054C85.2263 55.1054 87.3823 53.3209 87.3823 47.0521C87.3823 42.1331 85.6098 40.5478 83.031 40.5478C81.488 40.5478 80.3707 40.9766 78.8307 41.8251L78.8277 54.4834ZM78.867 38.9595C80.0205 38.3556 81.9832 37.5252 84.0668 37.5252C88.8438 37.5252 91.4256 40.8468 91.4256 47.0521C91.4256 54.2992 87.956 57.8171 82.3667 57.8171C79.7522 57.7449 77.1858 57.0963 74.8509 55.9177V28.8921L78.8609 27.9258L78.867 38.9595Z" fill="white"/>
<path d="M108.77 51.4457H108.964L117.207 29.801H121.987V57.2554H117.826V37.3501H117.479L109.616 57.2554H107.152L99.2887 37.8181H98.9444V57.2554H95.4779V29.801H100.14L108.77 51.4457Z" fill="white"/>
<path d="M138.988 47.4446C138.988 42.2177 136.874 40.0103 134.25 40.0103C131.707 40.0103 129.509 42.2177 129.509 47.4446C129.509 52.7501 131.514 54.879 134.25 54.879C136.986 54.879 138.988 52.7652 138.988 47.4446ZM125.466 47.4446C125.466 40.6656 129.165 37.2987 134.25 37.2987C139.335 37.2987 143.034 40.6656 143.034 47.4446C143.034 54.0637 139.528 57.5906 134.25 57.5906C128.972 57.5906 125.466 54.0667 125.466 47.4446Z" fill="white"/>
<path d="M146.084 40.1642C147.817 39.1164 151.48 37.2955 155.91 37.2955C160.533 37.2955 162.251 39.1073 162.251 43.1023V57.1224H158.259V43.9961C158.259 40.9372 156.749 40.3967 154.792 40.3967C153.252 40.3967 151.287 41.0942 150.091 41.7918V57.1254H146.084V40.1642Z" fill="white"/>
<path d="M170.733 45.5845H179.556C179.366 41.5201 177.4 39.8956 175.329 39.8956C172.977 39.8956 171.171 41.7073 170.745 45.5845H170.733ZM182.649 52.8649V55.7999C180.573 56.9855 178.22 57.6002 175.83 57.5815C169.362 57.5815 166.702 53.5533 166.702 47.4386C166.702 41.5503 169.667 37.2927 175.459 37.2927C180.29 37.2927 183.243 40.43 183.243 46.7411V48.1754H170.682C170.682 52.8196 172.569 54.8729 176.54 54.8729C178.617 54.8729 180.547 54.1361 182.664 52.8619" fill="white"/>
<path d="M199.232 37.2987H203.345L196.37 56.6575C194.44 62.0023 192.094 64.7894 187.664 64.7894V61.6157C190.285 61.6157 191.892 59.5231 192.828 56.6575L185.43 37.2987H189.657L194.588 51.5483H194.821L199.232 37.2987Z" fill="white"/>
</svg>
