<svg width="63" height="69" viewBox="0 0 63 69" fill="none" xmlns="http://www.w3.org/2000/svg">
<path d="M57.5418 62.5695H5.73398C2.9728 62.5695 0.734375 60.3311 0.734375 57.5699V14.4303C0.734375 11.6691 2.9728 9.43073 5.73398 9.43073H57.5418C60.303 9.43073 62.5414 11.6691 62.5414 14.4303V57.5699C62.5414 60.3311 60.303 62.5695 57.5418 62.5695Z" fill="url(#paint0_linear)"/>
<path d="M56.3864 61.3844H6.88937C4.25128 61.3844 2.11261 59.2458 2.11261 56.6077V15.3923C2.11261 12.7542 4.25115 10.6155 6.88937 10.6155H56.3863C59.0244 10.6155 61.1631 12.7541 61.1631 15.3923V56.6078C61.1632 59.2459 59.0245 61.3844 56.3864 61.3844Z" fill="url(#paint1_linear)"/>
<path d="M59.1915 23.3848L46.73 1.80099C45.9 0.363225 44.0614 -0.129428 42.6236 0.700812L3.33374 23.3848H59.1915Z" fill="url(#paint2_linear)"/>
<path d="M0.734375 40.756H62.5414V24.3858C62.5414 22.3195 60.8664 20.6446 58.8002 20.6446H4.47556C2.40931 20.6446 0.734375 22.3195 0.734375 24.3858V40.756Z" fill="url(#paint3_linear)"/>
<path d="M0.734375 34.5993V57.5699C0.734375 60.331 2.9728 62.5696 5.73412 62.5696H57.5418C60.303 62.5696 62.5414 60.3312 62.5414 57.57V34.5993C62.5414 32.8939 61.1588 31.5113 59.4533 31.5113H3.8224C2.11696 31.5113 0.734375 32.8937 0.734375 34.5993Z" fill="url(#paint4_linear)"/>
<path d="M53.2168 22.7515V62.5697H57.5418C60.3029 62.5697 62.5414 60.3313 62.5414 57.5701V32.0761L53.2168 22.7515Z" fill="url(#paint5_linear)"/>
<path d="M49.001 68.1753L5.61381 63.1363C2.83246 62.8132 0.734375 60.4575 0.734375 57.6575V14.0576C0.734375 14.9946 1.43648 15.7828 2.367 15.8909L50.2735 21.455C53.0548 21.7781 55.1529 24.1338 55.1529 26.9338V62.6966C55.1529 65.9949 52.2773 68.556 49.001 68.1753Z" fill="url(#paint6_linear)"/>
<path d="M49.001 59.4665L5.61381 54.4275C2.83246 54.1043 0.734375 51.7487 0.734375 48.9486V57.6574C0.734375 60.4575 2.83246 62.8133 5.61381 63.1363L49.001 68.1753C52.2773 68.5559 55.1531 65.9948 55.1531 62.6964V53.9876C55.1529 57.286 52.2773 59.8469 49.001 59.4665Z" fill="url(#paint7_linear)"/>
<path d="M4.62427 20.8532C4.58792 20.8532 4.55104 20.8511 4.51404 20.8471L2.52857 20.6288C1.98021 20.5684 1.58452 20.0752 1.64488 19.527C1.70523 18.9788 2.19881 18.5835 2.74664 18.6433L4.73211 18.8617C5.28047 18.922 5.67616 19.4152 5.6158 19.9634C5.55956 20.4748 5.12687 20.8532 4.62427 20.8532Z" fill="url(#paint8_linear)"/>
<path d="M45.4219 64.8849C45.38 64.8849 45.3373 64.8821 45.2946 64.8768L41.4357 64.3861C40.8887 64.3166 40.5014 63.8165 40.571 63.2692C40.6406 62.7222 41.1406 62.3371 41.6879 62.4045L45.5467 62.8952C46.0938 62.9647 46.4812 63.4647 46.4115 64.012C46.3471 64.5164 45.9174 64.8849 45.4219 64.8849ZM49.2201 64.3905C48.8455 64.3905 48.4862 64.1786 48.316 63.8171C48.0808 63.3182 48.2948 62.723 48.7938 62.4881C49.8071 62.0105 50.5692 61.2186 50.8847 60.315C51.0666 59.7945 51.6364 59.5199 52.1569 59.7014C52.6776 59.8833 52.9524 60.4528 52.7706 60.9736C52.2722 62.4006 51.1624 63.5803 49.6451 64.295C49.5076 64.3597 49.3629 64.3905 49.2201 64.3905ZM37.7044 63.9035C37.6624 63.9035 37.6197 63.9007 37.577 63.8954L33.7182 63.4048C33.1711 63.3353 32.7837 62.8352 32.8535 62.2879C32.9231 61.7409 33.423 61.3556 33.9703 61.4232L37.8292 61.9138C38.3762 61.9833 38.7637 62.4834 38.6939 63.0307C38.6296 63.5349 38.1995 63.9035 37.7044 63.9035ZM29.9868 62.9221C29.9449 62.9221 29.9023 62.9193 29.8595 62.914L26.0006 62.4233C25.4536 62.3538 25.0661 61.8537 25.1359 61.3064C25.2055 60.7594 25.7056 60.3723 26.2528 60.4417L30.1116 60.9324C30.6587 61.0019 31.0461 61.502 30.9764 62.0493C30.912 62.5535 30.482 62.9221 29.9868 62.9221ZM22.269 61.9406C22.2271 61.9406 22.1845 61.9378 22.1417 61.9325L18.2827 61.4417C17.7355 61.3721 17.3482 60.8721 17.418 60.3248C17.4876 59.7777 17.9878 59.3925 18.5348 59.4601L22.3938 59.9509C22.941 60.0206 23.3283 60.5205 23.2585 61.0678C23.1945 61.5723 22.7644 61.9406 22.269 61.9406ZM14.5514 60.9592C14.5095 60.9592 14.4669 60.9564 14.4241 60.9511L10.5651 60.4603C10.018 60.3906 9.63063 59.8907 9.7004 59.3434C9.77004 58.7962 10.2703 58.4109 10.8173 58.4787L14.6763 58.9695C15.2234 59.0391 15.6108 59.539 15.541 60.0863C15.4768 60.5908 15.0469 60.9592 14.5514 60.9592ZM52.0518 57.7789C51.5001 57.7789 51.0531 57.3319 51.0531 56.7802V52.8904C51.0531 52.3387 51.5001 51.8917 52.0518 51.8917C52.6034 51.8917 53.0505 52.3387 53.0505 52.8904V56.7802C53.0506 57.3319 52.6036 57.7789 52.0518 57.7789ZM52.0518 49.9993C51.5001 49.9993 51.0531 49.5523 51.0531 49.0006V45.1107C51.0531 44.5591 51.5001 44.112 52.0518 44.112C52.6034 44.112 53.0505 44.5591 53.0505 45.1107V49.0006C53.0506 49.5522 52.6036 49.9993 52.0518 49.9993ZM52.0518 42.2196C51.5001 42.2196 51.0531 41.7725 51.0531 41.2208V37.331C51.0531 36.7793 51.5001 36.3323 52.0518 36.3323C52.6034 36.3323 53.0505 36.7793 53.0505 37.331V41.2208C53.0506 41.7724 52.6036 42.2196 52.0518 42.2196ZM52.0518 34.4398C51.5001 34.4398 51.0531 33.9928 51.0531 33.4411V29.5512C51.0531 28.9995 51.5001 28.5525 52.0518 28.5525C52.6034 28.5525 53.0505 28.9995 53.0505 29.5512V33.4411C53.0506 33.9926 52.6036 34.4398 52.0518 34.4398ZM50.655 27.0586C50.4084 27.0586 50.1613 26.9678 49.9683 26.7848C49.228 26.0834 48.2006 25.6365 47.0751 25.5263L47.0487 25.5235C46.5002 25.4645 46.1035 24.972 46.1626 24.4236C46.2216 23.8751 46.714 23.4782 47.2625 23.5375L47.2795 23.5394C48.8351 23.6918 50.2812 24.3298 51.3422 25.3349C51.7427 25.7142 51.7597 26.3464 51.3803 26.7469C51.1837 26.954 50.9196 27.0586 50.655 27.0586ZM43.29 25.1042C43.2537 25.1042 43.2168 25.1021 43.1798 25.0981L39.3132 24.673C38.765 24.6126 38.3692 24.1194 38.4295 23.5712C38.4899 23.023 38.9835 22.6283 39.5313 22.6875L43.3979 23.1126C43.9461 23.173 44.3419 23.6662 44.2815 24.2144C44.2254 24.7256 43.7926 25.1042 43.29 25.1042ZM35.5571 24.2539C35.5207 24.2539 35.4838 24.2518 35.4468 24.2478L31.5802 23.8227C31.0319 23.7623 30.6361 23.2692 30.6965 22.7209C30.7567 22.1726 31.2511 21.7775 31.7982 21.8372L35.6649 22.2624C36.2131 22.3227 36.609 22.8159 36.5486 23.3641C36.4924 23.8755 36.0597 24.2539 35.5571 24.2539ZM27.8237 23.4038C27.7874 23.4038 27.7505 23.4017 27.7135 23.3977L23.847 22.9726C23.2987 22.9122 22.9029 22.419 22.9633 21.8708C23.0235 21.3226 23.5168 20.9275 24.065 20.9871L27.9316 21.4122C28.4798 21.4726 28.8756 21.9658 28.8153 22.514C28.7592 23.0252 28.3265 23.4038 27.8237 23.4038ZM20.0905 22.5537C20.0542 22.5537 20.0173 22.5515 19.9803 22.5476L16.1138 22.1224C15.5654 22.0621 15.1697 21.5689 15.2301 21.0207C15.2903 20.4726 15.7831 20.0777 16.3318 20.137L20.1984 20.5621C20.7466 20.6224 21.1424 21.1156 21.0821 21.6639C21.0261 22.1751 20.5933 22.5537 20.0905 22.5537ZM12.3573 21.7034C12.321 21.7034 12.2841 21.7013 12.2471 21.6973L8.38056 21.2722C7.83233 21.2118 7.43651 20.7186 7.49686 20.1704C7.55722 19.6223 8.05014 19.2275 8.59863 19.2867L12.4652 19.7118C13.0135 19.7722 13.4092 20.2654 13.3489 20.8136C13.2928 21.3248 12.8599 21.7034 12.3573 21.7034Z" fill="url(#paint9_linear)"/>
<path d="M6.82446 59.9764C6.78254 59.9764 6.7401 59.9737 6.69725 59.9683L4.71563 59.7164C4.16846 59.6469 3.781 59.1468 3.85077 58.5997C3.92028 58.0525 4.42036 57.6654 4.96753 57.7348L6.94915 57.9867C7.49632 58.0562 7.88378 58.5563 7.81401 59.1034C7.74981 59.6079 7.31977 59.9764 6.82446 59.9764Z" fill="url(#paint10_linear)"/>
<path d="M43.5188 7.73473L37.1268 11.213C36.2942 11.666 35.252 11.3584 34.7989 10.5258C34.3459 9.69313 34.6535 8.65092 35.4861 8.1978L41.8783 4.71966C42.7109 4.26667 43.7531 4.57428 44.2062 5.4069C44.6592 6.2394 44.3516 7.28174 43.5188 7.73473Z" fill="#61DB99"/>
<path d="M55.1529 48.5573L48.8096 42.214C47.9146 41.2394 46.6303 40.6282 45.2029 40.6282C42.4988 40.6282 40.3066 42.8204 40.3066 45.5244C40.3066 46.9519 40.9179 48.2363 41.8924 49.1311L55.1531 62.3917V48.5573H55.1529Z" fill="url(#paint11_linear)"/>
<path d="M45.2024 50.4201C47.9065 50.4201 50.0986 48.2279 50.0986 45.5238C50.0986 42.8196 47.9065 40.6275 45.2024 40.6275C42.4982 40.6275 40.3061 42.8196 40.3061 45.5238C40.3061 48.2279 42.4982 50.4201 45.2024 50.4201Z" fill="url(#paint12_linear)"/>
<path d="M45.2024 48.9028C47.0686 48.9028 48.5814 47.39 48.5814 45.5238C48.5814 43.6576 47.0686 42.1447 45.2024 42.1447C43.3362 42.1447 41.8233 43.6576 41.8233 45.5238C41.8233 47.39 43.3362 48.9028 45.2024 48.9028Z" fill="url(#paint13_linear)"/>
<path d="M43.9186 44.9393C44.3048 44.9393 44.6178 44.6263 44.6178 44.2401C44.6178 43.854 44.3048 43.541 43.9186 43.541C43.5325 43.541 43.2194 43.854 43.2194 44.2401C43.2194 44.6263 43.5325 44.9393 43.9186 44.9393Z" fill="url(#paint14_linear)"/>
<path d="M46.4862 44.9393C46.8723 44.9393 47.1854 44.6263 47.1854 44.2401C47.1854 43.854 46.8723 43.541 46.4862 43.541C46.1 43.541 45.787 43.854 45.787 44.2401C45.787 44.6263 46.1 44.9393 46.4862 44.9393Z" fill="url(#paint15_linear)"/>
<path d="M43.9186 47.5081C44.3048 47.5081 44.6178 47.195 44.6178 46.8089C44.6178 46.4227 44.3048 46.1097 43.9186 46.1097C43.5325 46.1097 43.2194 46.4227 43.2194 46.8089C43.2194 47.195 43.5325 47.5081 43.9186 47.5081Z" fill="url(#paint16_linear)"/>
<path d="M46.4862 47.5081C46.8723 47.5081 47.1854 47.195 47.1854 46.8089C47.1854 46.4227 46.8723 46.1097 46.4862 46.1097C46.1 46.1097 45.787 46.4227 45.787 46.8089C45.787 47.195 46.1 47.5081 46.4862 47.5081Z" fill="url(#paint17_linear)"/>
<defs>
<linearGradient id="paint0_linear" x1="32.6479" y1="6.36781" x2="32.287" y2="16.9485" gradientUnits="userSpaceOnUse">
<stop stop-color="#FFB92D"/>
<stop offset="1" stop-color="#F59500"/>
</linearGradient>
<linearGradient id="paint1_linear" x1="34.3781" y1="13.3931" x2="33.3954" y2="21.4988" gradientUnits="userSpaceOnUse">
<stop stop-color="#FFB92D"/>
<stop offset="1" stop-color="#F59500"/>
</linearGradient>
<linearGradient id="paint2_linear" x1="31.2619" y1="13.6327" x2="31.2619" y2="19.8076" gradientUnits="userSpaceOnUse">
<stop stop-color="#A7F3CE"/>
<stop offset="1" stop-color="#61DB99"/>
</linearGradient>
<linearGradient id="paint3_linear" x1="31.6372" y1="24.3219" x2="31.6372" y2="41.6492" gradientUnits="userSpaceOnUse">
<stop stop-color="#FF4C54"/>
<stop offset="1" stop-color="#BE3F45"/>
</linearGradient>
<linearGradient id="paint4_linear" x1="31.6372" y1="37.1882" x2="31.6372" y2="63.949" gradientUnits="userSpaceOnUse">
<stop stop-color="#FF4C54"/>
<stop offset="1" stop-color="#BE3F45"/>
</linearGradient>
<linearGradient id="paint5_linear" x1="59.0251" y1="42.6611" x2="54.5162" y2="42.6611" gradientUnits="userSpaceOnUse">
<stop stop-color="#BE3F45" stop-opacity="0"/>
<stop offset="1" stop-color="#BE3F45"/>
</linearGradient>
<linearGradient id="paint6_linear" x1="18.6995" y1="38.0323" x2="41.6371" y2="48.613" gradientUnits="userSpaceOnUse">
<stop stop-color="#FFB92D"/>
<stop offset="1" stop-color="#F59500"/>
</linearGradient>
<linearGradient id="paint7_linear" x1="27.2123" y1="61.5907" x2="26.2642" y2="68.8375" gradientUnits="userSpaceOnUse">
<stop stop-color="#BE3F45" stop-opacity="0"/>
<stop offset="1" stop-color="#BE3F45"/>
</linearGradient>
<linearGradient id="paint8_linear" x1="3.63014" y1="18.6382" x2="3.63014" y2="64.9809" gradientUnits="userSpaceOnUse">
<stop stop-color="#FFF465"/>
<stop offset="1" stop-color="#FFE600"/>
</linearGradient>
<linearGradient id="paint9_linear" x1="30.27" y1="18.6397" x2="30.27" y2="64.8851" gradientUnits="userSpaceOnUse">
<stop stop-color="#FFF465"/>
<stop offset="1" stop-color="#FFE600"/>
</linearGradient>
<linearGradient id="paint10_linear" x1="5.83213" y1="18.6371" x2="5.83213" y2="64.9784" gradientUnits="userSpaceOnUse">
<stop stop-color="#FFF465"/>
<stop offset="1" stop-color="#FFE600"/>
</linearGradient>
<linearGradient id="paint11_linear" x1="51.737" y1="52.0601" x2="38.0157" y2="38.3388" gradientUnits="userSpaceOnUse">
<stop stop-color="#BE3F45" stop-opacity="0"/>
<stop offset="1" stop-color="#BE3F45"/>
</linearGradient>
<linearGradient id="paint12_linear" x1="45.2013" y1="42.4509" x2="45.2013" y2="49.5312" gradientUnits="userSpaceOnUse">
<stop stop-color="#FF4C54"/>
<stop offset="1" stop-color="#BE3F45"/>
</linearGradient>
<linearGradient id="paint13_linear" x1="45.2013" y1="47.6456" x2="45.2013" y2="42.7598" gradientUnits="userSpaceOnUse">
<stop stop-color="#FF4C54"/>
<stop offset="1" stop-color="#BE3F45"/>
</linearGradient>
<linearGradient id="paint14_linear" x1="37.2907" y1="14.975" x2="38.6889" y2="21.1499" gradientUnits="userSpaceOnUse">
<stop stop-color="#A7F3CE"/>
<stop offset="1" stop-color="#61DB99"/>
</linearGradient>
<linearGradient id="paint15_linear" x1="39.8582" y1="14.9753" x2="41.2564" y2="21.1501" gradientUnits="userSpaceOnUse">
<stop stop-color="#A7F3CE"/>
<stop offset="1" stop-color="#61DB99"/>
</linearGradient>
<linearGradient id="paint16_linear" x1="36.7374" y1="15.1002" x2="38.1357" y2="21.2751" gradientUnits="userSpaceOnUse">
<stop stop-color="#A7F3CE"/>
<stop offset="1" stop-color="#61DB99"/>
</linearGradient>
<linearGradient id="paint17_linear" x1="39.3049" y1="15.1005" x2="40.7032" y2="21.2754" gradientUnits="userSpaceOnUse">
<stop stop-color="#A7F3CE"/>
<stop offset="1" stop-color="#61DB99"/>
</linearGradient>
</defs>
</svg>
