<svg width="70" height="69" viewBox="0 0 70 69" fill="none" xmlns="http://www.w3.org/2000/svg">
<g clip-path="url(#clip0)">
<path d="M63.7394 47.1001L45.7176 13.2927C44.7072 11.3973 42.7659 10.1651 40.5992 10.0353L37.4202 9.84873L25.7074 9.15704L25.4801 9.14283C25.3647 9.13579 25.2509 9.1322 25.1373 9.1322C25.0777 9.1322 25.0165 9.13393 24.9551 9.13579C23.6812 9.16607 22.4653 9.58204 21.4604 10.3057C20.8109 10.7716 20.2481 11.3654 19.815 12.066L11.8837 24.907C10.7525 26.7402 10.6768 29.0249 11.6906 30.9257L29.7055 64.7205C30.6257 66.4452 32.1718 67.6346 33.9218 68.1627C35.3489 68.5947 36.9132 68.5858 38.3871 68.0667C38.701 67.9565 39.0114 67.8231 39.3164 67.6667L42.1417 66.2033L60.7481 56.57C64.2283 54.7687 65.5671 50.5281 63.7394 47.1001ZM28.0258 25.5861C27.9429 25.6643 27.8615 25.7391 27.7769 25.8101C27.7408 25.8421 27.7012 25.8741 27.6633 25.9026C27.5388 25.9986 27.409 26.0874 27.2772 26.1675C27.2322 26.196 27.1888 26.2226 27.1436 26.2458C27.0986 26.2742 27.0516 26.2991 27.0066 26.3204C25.4514 27.1169 23.4903 26.8733 22.184 25.5861C20.5692 23.993 20.5692 21.4183 22.184 19.8288C23.6544 18.3779 25.9565 18.2499 27.5766 19.4466C27.6849 19.5265 27.7931 19.6136 27.8978 19.7079C27.9393 19.7488 27.9826 19.7862 28.026 19.8289C29.6388 21.4183 29.6388 23.993 28.0258 25.5861Z" fill="url(#paint0_linear)"/>
<path d="M29.7056 64.7205C30.6257 66.4452 32.1718 67.6346 33.9218 68.1627C35.3489 68.5947 36.9132 68.5858 38.3871 68.0667C38.701 67.9564 39.0114 67.8231 39.3164 67.6666L42.1417 66.2033L60.7481 56.57C64.2283 54.7688 65.5671 50.5283 63.7395 47.1002L55.3205 31.3067L42.8964 19.0627C42.4598 18.5438 41.9346 18.0912 41.3319 17.7319L38.6051 16.1079L28.3684 10.0123C27.5287 9.51244 26.5983 9.22743 25.6544 9.15358L25.4961 9.14375C25.4472 9.1411 25.398 9.14017 25.349 9.13871C25.287 9.13632 25.2246 9.13326 25.1631 9.133C25.0524 9.133 24.9416 9.13751 24.8307 9.14336C24.7858 9.14535 24.7411 9.14867 24.6964 9.15159C23.7505 9.22185 22.8171 9.50407 21.9739 10.0024L21.4579 10.3075C20.8094 10.7731 20.2474 11.3662 19.8148 12.0659L11.8836 24.9069C10.7524 26.7401 10.6766 29.0247 11.6905 30.9255L29.7056 64.7205ZM22.1839 19.8287C23.6543 18.3778 25.9564 18.2498 27.5765 19.4464C27.6847 19.5264 27.793 19.6135 27.8977 19.7078C27.9392 19.7487 27.9824 19.786 28.0258 19.8288C29.6388 21.4184 29.6388 23.9929 28.0258 25.5861C27.943 25.6643 27.8616 25.7391 27.7769 25.8101C27.7408 25.8421 27.7012 25.8741 27.6633 25.9026C27.5388 25.9986 27.409 26.0874 27.2772 26.1675C27.2322 26.1959 27.1888 26.2226 27.1437 26.2458C27.0986 26.2742 27.0516 26.2991 27.0066 26.3204C25.4514 27.1169 23.4903 26.8733 22.184 25.5861C20.5693 23.993 20.5693 21.4183 22.1839 19.8287Z" fill="url(#paint1_linear)"/>
<path d="M41.3317 17.7319L38.6049 16.1079L28.3682 10.0125C26.4033 8.84307 23.9428 8.83896 21.9738 10.0025L8.89255 17.7359C7.02524 18.8392 5.88135 20.8277 5.88135 22.9743V61.1497C5.88135 65.0224 9.06734 68.1622 12.999 68.1622H37.209C41.1387 68.1622 44.3246 65.0224 44.3246 61.1497V22.9602C44.3247 20.8196 43.1888 18.8392 41.3317 17.7319ZM22.1831 25.5856C20.5697 23.9935 20.5697 21.4184 22.1831 19.8285C23.6542 18.3787 25.9563 18.2507 27.5758 19.446C27.6855 19.5261 27.7932 19.6143 27.8968 19.7083C27.9394 19.7483 27.9821 19.7864 28.0248 19.8285C29.6381 21.4184 29.6381 23.9937 28.0248 25.5856C27.9436 25.6636 27.8622 25.7397 27.777 25.8099C27.7405 25.8419 27.7018 25.874 27.6632 25.902C27.5393 25.9982 27.4093 26.0882 27.2771 26.1683C27.2325 26.1964 27.1877 26.2225 27.1431 26.2464C27.0984 26.2744 27.0515 26.2985 27.0069 26.3205C25.4504 27.1174 23.4897 26.8732 22.1831 25.5856Z" fill="url(#paint2_linear)"/>
<path d="M44.3249 61.1496C44.3249 61.1496 44.3249 60.9808 44.3249 60.6692L20.4552 37.1513C19.5291 36.4215 18.303 36.056 16.7763 36.056C13.423 36.056 11.7462 37.5785 11.7462 40.6233V46.1188C11.7462 47.7672 12.242 48.9654 13.2249 49.7214L31.9369 68.1623H37.2092C41.1389 68.1621 44.3249 65.0223 44.3249 61.1496Z" fill="url(#paint3_linear)"/>
<path d="M33.0119 35.0163C32.6827 34.7441 32.3161 34.6077 31.911 34.6077C31.3599 34.6077 30.9844 34.8306 30.7841 35.2762L17.0023 62.5594C16.9023 62.7329 16.8523 62.9186 16.8523 63.1163C16.8523 63.4627 16.9912 63.7783 17.2695 64.0633L21.4287 68.1621H37.209C41.1388 68.1621 44.3247 65.0223 44.3247 61.1496C44.3247 61.1496 44.3247 56.1696 44.3247 49.966V46.2199L33.0119 35.0163Z" fill="url(#paint4_linear)"/>
<path d="M37.0711 49.6648C36.145 48.935 34.9188 48.5695 33.3923 48.5695C30.0389 48.5695 28.3622 50.092 28.3622 53.1368V58.6323C28.3622 60.2807 28.858 61.4789 29.8408 62.2349L35.8553 68.1622H37.2089C41.1386 68.1622 44.3245 65.0223 44.3245 61.1497C44.3245 61.1497 44.3245 59.454 44.3245 56.8116L37.0711 49.6648Z" fill="url(#paint5_linear)"/>
<path d="M11.7462 46.1187V40.6232C11.7462 37.5783 13.423 36.0559 16.7763 36.0559C18.3028 36.0559 19.5292 36.4214 20.4552 37.1512C21.3806 37.8817 21.8439 39.0393 21.8439 40.6231V46.1186C21.8439 47.703 21.3807 48.8605 20.4552 49.5904C19.5291 50.3209 18.3028 50.6857 16.7763 50.6857C13.423 50.6859 11.7462 49.1634 11.7462 46.1187ZM14.4213 46.0567C14.4213 47.4846 15.2062 48.1982 16.7762 48.1982C18.3709 48.1982 19.1686 47.4846 19.1686 46.0567V40.6852C19.1686 39.258 18.3709 38.5439 16.7762 38.5439C15.2061 38.5439 14.4213 39.258 14.4213 40.6852C14.4214 40.6852 14.4214 46.0567 14.4213 46.0567ZM16.8524 63.1163C16.8524 62.9184 16.9023 62.7329 17.0023 62.5594L30.7843 35.2762C30.9846 34.8306 31.3601 34.6077 31.9112 34.6077C32.3162 34.6077 32.6829 34.7441 33.0121 35.0163C33.3412 35.2889 33.506 35.6231 33.506 36.0187C33.506 36.2173 33.4683 36.415 33.3935 36.6128L19.6105 63.7848C19.3847 64.2548 18.9593 64.4904 18.3334 64.4904C17.9027 64.4904 17.5483 64.3476 17.2696 64.0634C16.9913 63.7784 16.8524 63.4628 16.8524 63.1163ZM28.3624 58.7088V53.1715C28.3624 50.1035 30.0392 48.5695 33.3925 48.5695C34.919 48.5695 36.1454 48.9379 37.0714 49.6736C37.9968 50.4092 38.4601 51.5755 38.4601 53.1715V58.7088C38.4601 60.3055 37.9968 61.4716 37.0714 62.2074C36.1453 62.943 34.919 63.3108 33.3925 63.3108C30.039 63.3108 28.3624 61.7768 28.3624 58.7088ZM31.0375 58.6571C31.0375 60.1011 31.8224 60.8231 33.3924 60.8231C34.9871 60.8231 35.7848 60.1013 35.7848 58.6571V53.223C35.7848 51.7796 34.9871 51.0571 33.3924 51.0571C31.8223 51.0571 31.0375 51.7795 31.0375 53.223V58.6571Z" fill="url(#paint6_linear)"/>
<path d="M44.3247 22.9598V35.9412L28.3614 20.2093C28.2586 20.0777 28.1468 19.9496 28.0259 19.8288C27.9826 19.7861 27.9392 19.7488 27.8977 19.7078C27.8689 19.6811 27.8399 19.6561 27.8093 19.6331C27.7336 19.5655 27.6541 19.5034 27.5766 19.4465C26.0322 18.3067 23.869 18.369 22.3969 19.6351V9.77408C24.0981 8.93829 26.0954 8.9189 27.8094 9.7171C27.9988 9.80423 28.1865 9.9037 28.3687 10.0123L38.6056 16.1074L41.3317 17.7325C43.1881 18.8384 44.3247 20.819 44.3247 22.9598Z" fill="url(#paint7_linear)"/>
<path d="M25.1031 24.4819C23.6085 24.4819 22.3969 23.2877 22.3969 21.8148V3.13942C22.3969 1.66653 23.6085 0.472412 25.1031 0.472412C26.5976 0.472412 27.8093 1.66653 27.8093 3.13942V21.8147C27.8094 23.2877 26.5976 24.4819 25.1031 24.4819Z" fill="url(#paint8_linear)"/>
</g>
<defs>
<linearGradient id="paint0_linear" x1="12.9589" y1="31.5552" x2="47.5962" y2="42.4912" gradientUnits="userSpaceOnUse">
<stop stop-color="#FFB92D"/>
<stop offset="1" stop-color="#F59500"/>
</linearGradient>
<linearGradient id="paint1_linear" x1="56.8232" y1="38.909" x2="29.6459" y2="38.7964" gradientUnits="userSpaceOnUse">
<stop stop-color="#BE3F45" stop-opacity="0"/>
<stop offset="1" stop-color="#BE3F45"/>
</linearGradient>
<linearGradient id="paint2_linear" x1="6.70686" y1="24.1137" x2="32.0476" y2="49.8272" gradientUnits="userSpaceOnUse">
<stop stop-color="#FFF465"/>
<stop offset="1" stop-color="#FFE600"/>
</linearGradient>
<linearGradient id="paint3_linear" x1="26.2365" y1="52.7129" x2="15.1153" y2="41.4281" gradientUnits="userSpaceOnUse">
<stop stop-color="#FFE600" stop-opacity="0"/>
<stop offset="1" stop-color="#F59500"/>
</linearGradient>
<linearGradient id="paint4_linear" x1="38.2194" y1="62.4298" x2="21.0976" y2="45.0562" gradientUnits="userSpaceOnUse">
<stop stop-color="#FFE600" stop-opacity="0"/>
<stop offset="1" stop-color="#F59500"/>
</linearGradient>
<linearGradient id="paint5_linear" x1="46.1257" y1="68.4551" x2="29.1785" y2="51.2574" gradientUnits="userSpaceOnUse">
<stop stop-color="#FFE600" stop-opacity="0"/>
<stop offset="1" stop-color="#F59500"/>
</linearGradient>
<linearGradient id="paint6_linear" x1="25.1026" y1="41.5797" x2="25.1026" y2="74.9403" gradientUnits="userSpaceOnUse">
<stop stop-color="white"/>
<stop offset="1" stop-color="#E2EDF2"/>
</linearGradient>
<linearGradient id="paint7_linear" x1="42.6396" y1="26.4288" x2="15.2565" y2="10.9586" gradientUnits="userSpaceOnUse">
<stop stop-color="#FFE600" stop-opacity="0"/>
<stop offset="1" stop-color="#F59500"/>
</linearGradient>
<linearGradient id="paint8_linear" x1="23.7743" y1="12.4784" x2="28.8247" y2="12.4784" gradientUnits="userSpaceOnUse">
<stop stop-color="#62E1FB"/>
<stop offset="1" stop-color="#00A2F3"/>
</linearGradient>
<clipPath id="clip0">
<rect width="69" height="68" fill="white" transform="translate(0.719238 0.472412)"/>
</clipPath>
</defs>
</svg>
