<svg width="68" height="67" viewBox="0 0 68 67" fill="none" xmlns="http://www.w3.org/2000/svg">
<path d="M57.3902 10.0359C51.1101 3.75607 42.7605 0.297485 33.8793 0.297485C24.998 0.297485 16.6484 3.75607 10.3683 10.0359C4.08847 16.316 0.629883 24.6656 0.629883 33.5469C0.629883 42.4281 4.08847 50.7777 10.3683 57.0578C16.6484 63.3377 24.998 66.7962 33.8793 66.7962C42.7605 66.7962 51.1101 63.3377 57.3902 57.0578C63.6701 50.7777 67.1286 42.4281 67.1286 33.5469C67.1286 24.6656 63.6701 16.316 57.3902 10.0359ZM12.1472 37.638H12.147H6.5949V29.4559H8.67558V35.8964H12.1472V37.638ZM15.3965 37.638H13.3158V29.4559H15.3965V37.638ZM23.1514 31.0921H19.1656V32.9858H22.8359V34.6223H19.1656V37.638H17.0849V29.4559H23.1514V31.0921ZM24.4502 37.638V29.4559H30.8556V31.0921H26.5308V32.7169H30.4348V34.3534H26.5308V36.0015H30.9841V37.638H24.4502ZM36.5483 31.139V37.6497H34.4676V31.139H32.0246V29.4558H39.0145V31.139H36.5483ZM42.2642 37.638H40.1835V29.4559H42.2642V37.638ZM52.9414 37.638H52.9413H51.1062L51.0944 32.3196L49.1307 36.8197H47.7749L45.8112 32.3196V37.638H43.9527V29.4441H46.2319L48.4529 34.3184L50.6738 29.4441H52.9414V37.638ZM54.6297 37.638V29.4559H61.0352V31.0921H56.7103V32.7169H60.6144V34.3534H56.7103V36.0015H61.1636V37.638H54.6297Z" fill="#196DEB"/>
</svg>
