<svg width="77" height="75" viewBox="0 0 77 75" fill="none" xmlns="http://www.w3.org/2000/svg">
<g clip-path="url(#clip0)">
<path d="M23.5847 73.8258L17.9297 64.1153L6.575 65.6575C5.53311 65.799 4.75308 64.7476 5.21828 63.829L18.1791 38.2406L38.8613 48.1724L25.9005 73.7608C25.4352 74.6795 24.1038 74.7168 23.5847 73.8258Z" fill="url(#paint0_linear)"/>
<path d="M38.8614 48.1724L32.1817 44.9648L28.5204 43.2064L18.1793 38.2406L16.1569 42.2336L17.925 43.9552C17.9301 43.9619 17.9351 43.9684 17.9402 43.975L18.2385 46.4553C18.3046 47.0047 18.6037 47.4821 19.0365 47.794L32.4419 60.8466L38.8614 48.1724Z" fill="url(#paint1_linear)"/>
<path d="M17.9296 64.1151L20.3641 68.2956L32.1815 44.9649L24.8587 41.4483L13.0413 64.7791L17.9296 64.1151Z" fill="url(#paint2_linear)"/>
<path d="M24.8588 41.4483L20.7833 49.4946L26.8804 55.4313L32.1817 44.9649L28.5203 43.2065L24.8588 41.4483Z" fill="url(#paint3_linear)"/>
<path d="M54.1379 73.8257L59.7929 64.1153L71.1477 65.6576C72.1895 65.7991 72.9696 64.7477 72.5044 63.8291L59.5436 38.2407L38.8613 48.1723L51.8221 73.7607C52.2875 74.6795 53.6188 74.7168 54.1379 73.8257Z" fill="url(#paint4_linear)"/>
<path d="M72.5043 63.8291L59.5434 38.2407L38.8613 48.1723L41.8734 54.1191L57.0236 68.8705L59.793 64.1151L71.1477 65.6574C72.1897 65.7991 72.9698 64.7478 72.5043 63.8291Z" fill="url(#paint5_linear)"/>
<path d="M59.7929 64.1151L57.3584 68.2956L45.541 44.9649L52.8637 41.4483L64.6811 64.7791L59.7929 64.1151Z" fill="url(#paint6_linear)"/>
<path d="M66.7875 29.2898L64.4746 32.1416C64.0766 32.6323 63.9446 33.2795 64.1204 33.881L65.1397 37.3729C65.3935 38.2422 64.9996 39.1669 64.1888 39.6066L60.9318 41.3726C60.3701 41.6772 59.9931 42.2258 59.9183 42.8476L59.4842 46.4557C59.3765 47.3516 58.6506 48.0584 57.7305 48.1633L54.025 48.5859C53.3866 48.6587 52.823 49.0259 52.5102 49.5728L50.6966 52.7441C50.245 53.5335 49.295 53.9169 48.4023 53.6699L44.8161 52.6774C44.1983 52.5065 43.5337 52.6348 43.0296 53.0223L40.101 55.2744C39.3742 55.8331 38.3485 55.8331 37.6218 55.2744L34.693 53.0223C34.189 52.6348 33.5243 52.5063 32.9065 52.6774L29.3203 53.6699C28.4276 53.9171 27.4777 53.5335 27.0262 52.7441L25.2124 49.5728C24.8996 49.0259 24.3362 48.6587 23.6976 48.5859L19.992 48.1633C19.0718 48.0584 18.346 47.3516 18.2382 46.4557L17.8042 42.8479C17.7294 42.2262 17.3523 41.6775 16.7906 41.3729L13.5335 39.607C12.7227 39.1674 12.3289 38.2424 12.5826 37.3732L13.6019 33.8813C13.7775 33.2798 13.6457 32.6327 13.2477 32.1419L10.9348 29.2903C10.3609 28.5826 10.3609 27.5839 10.9348 26.8763L13.2477 24.0246C13.6457 23.5339 13.7775 22.8867 13.6019 22.2851L12.5826 18.7932C12.3288 17.924 12.7227 16.9992 13.5335 16.5595L16.7905 14.7935C17.3522 14.489 17.7292 13.9403 17.804 13.3185L18.2381 9.71047C18.3458 8.81452 19.0717 8.10776 19.9919 8.00283L23.6973 7.58022C24.3357 7.50738 24.8993 7.14027 25.2121 6.59336L27.0257 3.42206C27.4773 2.63263 28.4273 2.24918 29.32 2.49619L32.9062 3.48868C33.524 3.65967 34.1886 3.53132 34.6927 3.14383L37.6213 0.891603C38.3481 0.332845 39.3738 0.332845 40.1005 0.891603L43.0294 3.14369C43.5333 3.53118 44.198 3.65952 44.8158 3.48854L48.402 2.49604C49.2947 2.2489 50.2446 2.63248 50.6961 3.42191L52.5099 6.59322C52.8227 7.14012 53.3861 7.50723 54.0247 7.58007L57.7303 8.00269C58.6505 8.10761 59.3763 8.81437 59.4841 9.71032L59.9181 13.3183C59.9929 13.9399 60.37 14.4887 60.9317 14.7932L64.1887 16.5591C64.9994 16.9987 65.3932 17.9237 65.1396 18.793L64.1202 22.2848C63.9446 22.8864 64.0765 23.5334 64.4744 24.0243L66.7874 26.8759C67.3614 27.5835 67.3614 28.5822 66.7875 29.2898Z" fill="url(#paint7_linear)"/>
<path d="M38.8613 46.1753C49.1234 46.1753 57.4426 38.0751 57.4426 28.083C57.4426 18.0909 49.1234 9.99072 38.8613 9.99072C28.5991 9.99072 20.28 18.0909 20.28 28.083C20.28 38.0751 28.5991 46.1753 38.8613 46.1753Z" fill="url(#paint8_linear)"/>
<path d="M38.8613 46.1753C49.1234 46.1753 57.4426 38.0751 57.4426 28.083C57.4426 18.0909 49.1234 9.99072 38.8613 9.99072C28.5991 9.99072 20.28 18.0909 20.28 28.083C20.28 38.0751 28.5991 46.1753 38.8613 46.1753Z" fill="url(#paint9_linear)"/>
<path d="M38.8614 42.825C47.2232 42.825 54.0017 36.2249 54.0017 28.0831C54.0017 19.9414 47.2232 13.3412 38.8614 13.3412C30.4996 13.3412 23.7211 19.9414 23.7211 28.0831C23.7211 36.2249 30.4996 42.825 38.8614 42.825Z" fill="url(#paint10_linear)"/>
<path d="M57.7305 48.163C58.6507 48.058 59.3765 47.3514 59.4843 46.4553L59.9183 42.8472C59.9931 42.2256 60.3701 41.6768 60.9318 41.3723L64.1889 39.6063C64.4454 39.4671 64.6597 39.2794 64.8255 39.0602L40.2592 15.0945C39.8972 14.864 39.4923 14.7484 39.0432 14.7484C38.6438 14.7484 38.3071 14.8822 38.0328 15.1491L34.1415 18.7923C33.6176 19.1567 33.3557 19.6548 33.3557 20.2861C33.3557 20.675 33.4866 21.0329 33.7485 21.3608L36.8355 24.3779V40.1421C36.8355 40.5308 37.0284 40.8406 37.4155 41.0711C37.4418 41.0867 37.4692 41.1006 37.4962 41.1152L50.0833 53.3983C50.3306 53.2327 50.5427 53.0124 50.6965 52.7436L52.5101 49.5724C52.8228 49.0255 53.3863 48.6584 54.0249 48.5856L57.7305 48.163Z" fill="url(#paint11_linear)"/>
<path d="M33.3557 20.2862C33.3557 19.6549 33.6177 19.1567 34.1415 18.7925L38.0328 15.1493C38.307 14.8823 38.6438 14.7485 39.0432 14.7485C39.4923 14.7485 39.8972 14.8641 40.2592 15.0946C40.6205 15.3257 40.8018 15.6355 40.8018 16.0237V40.1422C40.8018 40.531 40.6018 40.8407 40.2031 41.0712C39.804 41.3023 39.3425 41.4172 38.8188 41.4172C38.2697 41.4172 37.802 41.3022 37.4156 41.0712C37.0285 40.8407 36.8357 40.5308 36.8357 40.1422V19.8854L35.526 21.4885C35.2765 21.7316 35.0023 21.8528 34.7028 21.8528C34.3286 21.8528 34.0106 21.6889 33.7486 21.3611C33.4868 21.033 33.3557 20.675 33.3557 20.2862Z" fill="#FFB92D"/>
</g>
<defs>
<linearGradient id="paint0_linear" x1="18.9101" y1="62.18" x2="28.3757" y2="42.4659" gradientUnits="userSpaceOnUse">
<stop stop-color="#62E1FB"/>
<stop offset="1" stop-color="#00A2F3"/>
</linearGradient>
<linearGradient id="paint1_linear" x1="35.1281" y1="66.2237" x2="25.8408" y2="39.1995" gradientUnits="userSpaceOnUse">
<stop stop-color="#00A2F3" stop-opacity="0"/>
<stop offset="1" stop-color="#0075CD"/>
</linearGradient>
<linearGradient id="paint2_linear" x1="20.3375" y1="59.3622" x2="29.3492" y2="40.5907" gradientUnits="userSpaceOnUse">
<stop stop-color="#F2F2F2"/>
<stop offset="1" stop-color="#C3C3C3"/>
</linearGradient>
<linearGradient id="paint3_linear" x1="33.5319" y1="59.9034" x2="21.16" y2="36.4452" gradientUnits="userSpaceOnUse">
<stop stop-color="#C3C3C3" stop-opacity="0"/>
<stop offset="1" stop-color="#777777"/>
</linearGradient>
<linearGradient id="paint4_linear" x1="58.8118" y1="62.1817" x2="49.3462" y2="42.4676" gradientUnits="userSpaceOnUse">
<stop stop-color="#FF4C54"/>
<stop offset="1" stop-color="#BE3F45"/>
</linearGradient>
<linearGradient id="paint5_linear" x1="73.1566" y1="68.039" x2="41.6169" y2="35.6469" gradientUnits="userSpaceOnUse">
<stop stop-color="#BE3F45" stop-opacity="0"/>
<stop offset="1" stop-color="#BE3F45"/>
</linearGradient>
<linearGradient id="paint6_linear" x1="66.0848" y1="70.9855" x2="47.6696" y2="42.4674" gradientUnits="userSpaceOnUse">
<stop stop-color="#F2F2F2"/>
<stop offset="1" stop-color="#C3C3C3"/>
</linearGradient>
<linearGradient id="paint7_linear" x1="22.7172" y1="12.3662" x2="65.5935" y2="56.4001" gradientUnits="userSpaceOnUse">
<stop stop-color="#FFF465"/>
<stop offset="1" stop-color="#FFE600"/>
</linearGradient>
<linearGradient id="paint8_linear" x1="49.4389" y1="38.3846" x2="21.3426" y2="9.52747" gradientUnits="userSpaceOnUse">
<stop stop-color="#FFF465"/>
<stop offset="1" stop-color="#FFE600"/>
</linearGradient>
<linearGradient id="paint9_linear" x1="49.4389" y1="38.3846" x2="21.3426" y2="9.52747" gradientUnits="userSpaceOnUse">
<stop stop-color="#FFF465"/>
<stop offset="1" stop-color="#FFE600"/>
</linearGradient>
<linearGradient id="paint10_linear" x1="30.241" y1="19.691" x2="53.1346" y2="43.2048" gradientUnits="userSpaceOnUse">
<stop stop-color="#FFF465"/>
<stop offset="1" stop-color="#FFE600"/>
</linearGradient>
<linearGradient id="paint11_linear" x1="61.3321" y1="40.0971" x2="10.788" y2="20.7079" gradientUnits="userSpaceOnUse">
<stop stop-color="#FFE600" stop-opacity="0"/>
<stop offset="1" stop-color="#F59500"/>
</linearGradient>
<clipPath id="clip0">
<rect width="76" height="74" fill="white" transform="translate(0.861328 0.472412)"/>
</clipPath>
</defs>
</svg>
