<svg width="78" height="78" viewBox="0 0 78 78" fill="none" xmlns="http://www.w3.org/2000/svg">
<g clip-path="url(#clip0)">
<path d="M51.2854 25.0046C65.3451 24.787 76.8205 35.9966 77.0927 50.2378C77.1327 52.3288 76.9264 54.3639 76.5014 56.316C75.7816 59.6214 75.3538 62.985 75.3538 66.3699V72.9128C75.3538 73.9152 74.5516 74.7278 73.562 74.7278H67.103C63.7615 74.7278 60.4411 75.1612 57.178 75.8903C55.2511 76.3209 53.242 76.5299 51.1779 76.4894C37.1194 76.2138 26.0535 64.5897 26.268 50.3477C26.4772 36.4463 37.5625 25.2169 51.2854 25.0046Z" fill="url(#paint0_linear)"/>
<path d="M51.2854 25.0046C65.3451 24.787 76.8205 35.9966 77.0927 50.2378C77.1327 52.3288 76.9264 54.3639 76.5014 56.316C75.7816 59.6214 75.3538 62.985 75.3538 66.3699V72.9128C75.3538 73.9152 74.5516 74.7278 73.562 74.7278H67.103C63.7615 74.7278 60.4411 75.1612 57.178 75.8903C55.2511 76.3209 53.242 76.5299 51.1779 76.4894C37.1194 76.2138 26.0535 64.5897 26.268 50.3477C26.4772 36.4463 37.5625 25.2169 51.2854 25.0046Z" fill="url(#paint1_linear)"/>
<path d="M31.544 1.50959C14.4154 1.24452 0.435276 14.9007 0.103514 32.2505C0.0549384 34.7976 0.306241 37.2772 0.824185 39.6553C1.70096 43.6821 2.22221 47.78 2.22221 51.9037V59.8747C2.22221 61.0958 3.19945 62.0859 4.40513 62.0859H12.2739C16.3446 62.0859 20.39 62.6139 24.3652 63.5021C26.7128 64.0266 29.1606 64.2813 31.675 64.232C48.802 63.8961 62.2832 49.7348 62.0221 32.3841C61.767 15.4486 48.2623 1.76812 31.544 1.50959Z" fill="url(#paint2_linear)"/>
<path d="M19.9783 31.1907C19.1036 30.2492 17.8656 29.658 16.4883 29.658C13.8395 29.658 11.6922 31.8331 11.6922 34.5163C11.6922 35.9113 12.2757 37.1654 13.2053 38.0516L23.5512 48.5319C24.4261 49.4734 25.6641 50.0647 27.0412 50.0647C29.69 50.0647 31.8373 47.8895 31.8373 45.2063C31.8373 43.8113 31.2536 42.5572 30.3242 41.671L19.9783 31.1907Z" fill="url(#paint3_linear)"/>
<path d="M16.4881 39.3741C19.1369 39.3741 21.2842 37.199 21.2842 34.5157C21.2842 31.8325 19.1369 29.6573 16.4881 29.6573C13.8393 29.6573 11.692 31.8325 11.692 34.5157C11.692 37.199 13.8393 39.3741 16.4881 39.3741Z" fill="white"/>
<path d="M33.5419 31.1907C32.6672 30.2492 31.4292 29.658 30.0519 29.658C27.4031 29.658 25.2558 31.8331 25.2558 34.5163C25.2558 35.9113 25.8393 37.1654 26.7689 38.0516L37.1149 48.5319C37.9897 49.4734 39.2277 50.0647 40.6048 50.0647C43.2536 50.0647 45.4009 47.8895 45.4009 45.2063C45.4009 43.8113 44.8172 42.5572 43.8878 41.671L33.5419 31.1907Z" fill="url(#paint4_linear)"/>
<path d="M30.0521 39.3741C32.7009 39.3741 34.8482 37.199 34.8482 34.5157C34.8482 31.8325 32.7009 29.6573 30.0521 29.6573C27.4033 29.6573 25.256 31.8325 25.256 34.5157C25.256 37.199 27.4033 39.3741 30.0521 39.3741Z" fill="white"/>
<path d="M47.1055 31.1907C46.2308 30.2492 44.9928 29.658 43.6155 29.658C40.9667 29.658 38.8194 31.8331 38.8194 34.5163C38.8194 35.9113 39.4031 37.1654 40.3325 38.0516L50.6785 48.5319C51.5533 49.4734 52.7913 50.0647 54.1684 50.0647C56.8172 50.0647 58.9645 47.8895 58.9645 45.2063C58.9645 43.8113 58.3808 42.5572 57.4514 41.671L47.1055 31.1907Z" fill="url(#paint5_linear)"/>
<path d="M43.6163 39.3741C46.2651 39.3741 48.4124 37.199 48.4124 34.5157C48.4124 31.8325 46.2651 29.6573 43.6163 29.6573C40.9675 29.6573 38.8202 31.8325 38.8202 34.5157C38.8202 37.199 40.9675 39.3741 43.6163 39.3741Z" fill="white"/>
</g>
<defs>
<linearGradient id="paint0_linear" x1="46.5506" y1="45.5523" x2="84.3475" y2="82.8646" gradientUnits="userSpaceOnUse">
<stop stop-color="#A7F3CE"/>
<stop offset="1" stop-color="#61DB99"/>
</linearGradient>
<linearGradient id="paint1_linear" x1="58.7658" y1="57.9253" x2="42.7117" y2="42.0786" gradientUnits="userSpaceOnUse">
<stop stop-color="#61DB99" stop-opacity="0"/>
<stop offset="1" stop-color="#009E74"/>
</linearGradient>
<linearGradient id="paint2_linear" x1="19.749" y1="27.801" x2="59.6548" y2="67.1951" gradientUnits="userSpaceOnUse">
<stop stop-color="#62E1FB"/>
<stop offset="1" stop-color="#00A2F3"/>
</linearGradient>
<linearGradient id="paint3_linear" x1="27.1573" y1="45.3249" x2="6.14633" y2="24.5839" gradientUnits="userSpaceOnUse">
<stop stop-color="#00A2F3" stop-opacity="0"/>
<stop offset="1" stop-color="#0075CD"/>
</linearGradient>
<linearGradient id="paint4_linear" x1="40.72" y1="45.3243" x2="19.7096" y2="24.5834" gradientUnits="userSpaceOnUse">
<stop stop-color="#00A2F3" stop-opacity="0"/>
<stop offset="1" stop-color="#0075CD"/>
</linearGradient>
<linearGradient id="paint5_linear" x1="54.2836" y1="45.3246" x2="33.2732" y2="24.5836" gradientUnits="userSpaceOnUse">
<stop stop-color="#00A2F3" stop-opacity="0"/>
<stop offset="1" stop-color="#0075CD"/>
</linearGradient>
<clipPath id="clip0">
<rect width="77" height="78" fill="white" transform="translate(0.0976562)"/>
</clipPath>
</defs>
</svg>
